<svg width="40" height="33" viewBox="0 0 40 33" fill="none" xmlns="http://www.w3.org/2000/svg">
<path d="M13.0877 27.9934C11.8401 25.6282 11.8831 23.2718 13.118 20.9183C13.21 20.7419 13.3352 20.5713 13.2658 20.3508C10.9349 17.2632 7.8986 16.6162 4.3094 17.7905C4.3094 17.419 4.29766 17.071 4.3094 16.7231C4.32114 16.4702 4.25069 16.3643 3.97866 16.3672C2.76334 16.3803 1.54998 16.3803 0.338578 16.3672C0.0655715 16.3672 -0.000967934 16.4653 1.05837e-05 16.7191C0.00783872 19.2981 -0.00781732 21.877 0.0186027 24.4559C0.021156 24.8556 0.0601321 25.2542 0.135046 25.6468C0.506883 27.5141 1.33177 29.1315 2.90719 30.2773C5.05992 31.8407 7.39956 32.1495 9.88597 31.2732C11.2892 30.7753 12.3998 29.8617 13.2667 28.6512C13.4008 28.3777 13.1934 28.1895 13.0877 27.9934ZM7.33987 27.5259C5.71944 27.5455 4.19198 26.1252 4.29277 24.3226C4.37594 22.7954 5.7126 21.4614 7.31736 21.4614C8.96127 21.5221 10.3596 22.7484 10.3195 24.5157C10.3122 25.3074 9.99672 26.065 9.44022 26.6272C8.88372 27.1894 8.13013 27.5119 7.33987 27.5259Z" fill="#F4AD31"/>
<path d="M13.1377 11.7681C11.8519 9.38128 11.8725 6.99546 13.1377 4.61258C13.2209 4.45281 13.3432 4.30186 13.2815 4.10092C12.9197 3.53847 12.4743 3.03471 11.9605 2.60709C10.9061 1.71814 9.61895 1.15125 8.2522 0.97383C6.88546 0.796415 5.4966 1.01594 4.25078 1.6063C1.44048 2.94918 0.102847 5.30951 0.025544 8.37853C-0.0302315 10.6781 0.0255441 12.9855 0.00695231 15.2821C0.00695231 15.6144 0.0803412 15.7281 0.431629 15.7193C1.44146 15.6948 2.45325 15.7105 3.46503 15.7105C4.29286 15.7105 4.29286 15.7105 4.3457 14.8753C5.60407 15.2596 6.84973 15.5918 8.20008 15.3938C10.3528 15.0763 12.0633 14.098 13.2825 12.2837C13.3442 12.0788 13.2248 11.9278 13.1377 11.7681ZM7.32333 11.1799C5.57081 11.1799 4.37016 9.92725 4.30754 8.17465C4.25274 6.63769 5.77042 5.06152 7.475 5.1811C8.88309 5.27912 10.3744 6.47301 10.3489 8.21973C10.3244 10.0537 8.76762 11.2858 7.32333 11.177V11.1799Z" fill="#1468E0"/>
<path d="M24.5249 8.19701C24.5227 6.63239 25.0274 5.1093 25.9633 3.85667C25.0415 2.62112 23.7541 1.70828 22.2845 1.24804C20.8148 0.7878 19.2376 0.803599 17.7774 1.29319C16.3172 1.78278 15.0483 2.72123 14.1513 3.97499C13.2543 5.22876 12.7749 6.73397 12.7813 8.27645C12.7877 9.81893 13.2796 11.3201 14.1869 12.5663C15.0943 13.8126 16.3709 14.7405 17.8351 15.2179C19.2994 15.6953 20.8766 15.698 22.3424 15.2255C23.8082 14.7531 25.088 13.8295 25.9995 12.5864C25.0405 11.325 24.5223 9.78259 24.5249 8.19701ZM20.1001 11.2356C19.5102 11.2356 18.9335 11.0604 18.4431 10.7321C17.9526 10.4038 17.5703 9.93723 17.3446 9.39131C17.1188 8.84538 17.0598 8.24466 17.1749 7.66511C17.2899 7.08556 17.574 6.55321 17.9911 6.13538C18.4082 5.71755 18.9397 5.433 19.5182 5.31772C20.0968 5.20244 20.6964 5.26161 21.2414 5.48774C21.7864 5.71387 22.2522 6.0968 22.5799 6.58812C22.9077 7.07944 23.0826 7.65707 23.0826 8.24798C23.0821 9.04001 22.7676 9.79943 22.2083 10.3593C21.6491 10.9192 20.8907 11.2337 20.1001 11.2337V11.2356Z" fill="#FA4248"/>
<path d="M39.7589 0.420844C39.7589 0.0630692 39.6405 -0.00554518 39.3166 0.00033604C38.2882 0.0189599 37.2618 0.00719744 36.2284 0.00719744C35.4711 0.00719744 35.473 0.00719746 35.4456 0.791361C35.4368 1.03445 35.4202 1.28146 35.4075 1.52259C35.2059 1.4579 35.0161 1.40105 34.8341 1.33831C33.7582 0.954853 32.6057 0.837493 31.4748 0.996224C30.5329 1.12919 29.6263 1.4467 28.8069 1.93063C27.9875 2.41455 27.2713 3.05541 26.6991 3.81661C26.1269 4.57782 25.71 5.44446 25.4722 6.36705C25.2344 7.28965 25.1803 8.25014 25.3131 9.19367C25.4458 10.1372 25.7628 11.0453 26.2459 11.8661C26.729 12.687 27.3687 13.4044 28.1286 13.9776C28.8885 14.5507 29.7536 14.9684 30.6747 15.2066C31.5957 15.4448 32.5545 15.499 33.4964 15.366C35.0728 15.1657 36.5363 14.4408 37.6522 13.3076C39.0339 11.9255 39.7071 10.1709 39.7374 8.21739C39.7814 5.6169 39.7403 3.0174 39.7589 0.420844ZM32.3496 11.2237C31.7516 11.2235 31.1671 11.0457 30.67 10.7127C30.1729 10.3798 29.7855 9.90671 29.5568 9.35324C29.3281 8.79978 29.2684 8.19081 29.3852 7.60334C29.5019 7.01587 29.79 6.47628 30.2129 6.05279C30.6358 5.6293 31.1746 5.34093 31.7611 5.22414C32.3476 5.10735 32.9554 5.16739 33.5079 5.39666C34.0603 5.62593 34.5325 6.01415 34.8647 6.51222C35.1969 7.01028 35.3742 7.59584 35.3742 8.19484C35.3742 8.59268 35.296 8.98661 35.1439 9.35415C34.9919 9.72169 34.7691 10.0556 34.4882 10.3369C34.2074 10.6182 33.8739 10.8412 33.507 10.9934C33.14 11.1456 32.7467 11.2238 32.3496 11.2237Z" fill="#F4AD31"/>
<path d="M23.7268 28.2832C24.9764 27.0913 26.1819 25.8523 27.4188 24.6153C27.4188 24.5712 27.4188 24.5261 27.4188 24.481C27.4188 24.4359 27.4188 24.4045 27.4188 24.3663C26.2445 23.195 25.1173 22.0138 23.9235 20.8983C22.9401 19.9818 22.673 18.9634 23.0565 17.7725C21.9417 17.2797 20.7217 17.0735 19.5071 17.1727C18.2926 17.2718 17.122 17.673 16.1014 18.34C15.0809 19.0071 14.2427 19.9187 13.6629 20.9924C13.0832 22.066 12.7801 23.2677 12.7813 24.4883C12.7824 25.709 13.0877 26.91 13.6696 27.9826C14.2514 29.0551 15.0913 29.9652 16.1131 30.6302C17.1349 31.2953 18.3063 31.6944 19.521 31.7912C20.7357 31.888 21.9553 31.6795 23.0693 31.1846C22.6377 30.1417 22.9763 29.0017 23.7268 28.2832ZM20.1014 27.4686C19.5115 27.4686 18.9349 27.2934 18.4444 26.9651C17.954 26.6368 17.5717 26.1702 17.3459 25.6243C17.1202 25.0784 17.0611 24.4777 17.1762 23.8981C17.2913 23.3186 17.5754 22.7862 17.9925 22.3684C18.4096 21.9505 18.941 21.666 19.5196 21.5507C20.0981 21.4354 20.6978 21.4946 21.2428 21.7207C21.7878 21.9469 22.2536 22.3298 22.5813 22.8211C22.909 23.3124 23.0839 23.8901 23.0839 24.481C23.0839 24.8733 23.0068 25.2618 22.8569 25.6243C22.707 25.9868 22.4873 26.3161 22.2104 26.5936C21.9334 26.871 21.6046 27.0911 21.2428 27.2412C20.8809 27.3914 20.4931 27.4686 20.1014 27.4686Z" fill="#FA4248"/>
<path d="M35.3234 24.4888L39.1768 20.6376C39.896 19.9181 40.1612 19.0693 39.9058 18.0753C39.6612 17.1157 38.9899 16.5178 38.0681 16.311C37.1982 16.1149 36.3538 16.2688 35.6747 16.9667C34.4926 18.1802 33.2754 19.3623 32.1021 20.5807C31.8154 20.8748 31.6647 20.8277 31.4054 20.5611C30.2214 19.3506 29.0198 18.1567 27.826 16.954C27.6497 16.7647 27.4383 16.6116 27.2037 16.5031C26.1792 16.062 24.8552 16.0659 23.8053 17.5009C23.2867 18.8105 23.5166 19.9142 24.5744 20.9003C25.8112 22.054 26.9796 23.2812 28.1949 24.4927C26.913 25.767 25.6694 27.053 24.3787 28.2851C23.5841 29.0458 23.2505 30.2808 23.8072 31.3718C24.7505 32.9597 26.6391 33.192 27.9542 31.8756C29.0991 30.7327 30.2527 29.5957 31.379 28.4331C31.6589 28.1391 31.8115 28.1038 32.1158 28.4184C33.2675 29.6123 34.4643 30.7572 35.614 31.9472C36.5524 32.9195 38.2345 33.0117 39.26 31.9697C40.17 31.0464 40.2385 29.3467 39.213 28.3675C37.894 27.1128 36.6327 25.7974 35.3234 24.4888Z" fill="#15CDA8"/>
</svg>
